<svg width="842" height="596" viewBox="0 0 842 596" fill="none" xmlns="http://www.w3.org/2000/svg">
<path fill-rule="evenodd" clip-rule="evenodd" d="M253.514 265.327C247.138 271.893 235.717 275.177 219.253 275.177V300.788H265.122H270.502V299.797C270.838 299.728 271.171 299.658 271.501 299.588C284.92 296.638 295.246 292.688 302.479 287.739C309.712 282.695 314.661 276.938 317.326 270.466C319.991 263.899 321.323 256.999 321.323 249.766V208.082C321.323 198.85 322.37 191.237 324.464 185.241C326.557 179.15 330.507 174.677 336.312 171.822C342.213 168.871 350.778 167.396 362.008 167.396V122C347.638 122 334.409 122.904 322.322 124.712C310.236 126.521 299.767 130.137 290.916 135.562C282.16 140.987 275.308 149.028 270.359 159.688C265.506 170.251 263.079 184.337 263.079 201.943V233.492C263.079 248.148 259.891 258.76 253.514 265.327Z" fill="#29ADF8"/>
<path fill-rule="evenodd" clip-rule="evenodd" d="M254.364 328.786C247.783 322.424 236.265 319.502 219.809 320.022L219 294.424L264.846 292.975L270.224 292.805L270.255 293.797C270.593 293.855 270.928 293.914 271.26 293.974C284.766 296.499 295.211 300.12 302.597 304.838C309.986 309.651 315.114 315.25 317.982 321.634C320.852 328.114 322.402 334.968 322.63 342.197L323.947 383.861C324.238 393.088 325.525 400.665 327.807 406.591C330.092 412.613 334.181 416.959 340.073 419.63C346.064 422.392 354.672 423.596 365.896 423.242L367.33 468.615C352.966 469.069 339.716 468.583 327.578 467.157C315.44 465.732 304.862 462.448 295.845 457.305C286.922 452.159 279.819 444.338 274.536 433.84C269.352 423.435 266.481 409.433 265.925 391.836L264.929 360.302C264.466 345.653 260.945 335.148 254.364 328.786Z" fill="#480DF3"/>
<path fill-rule="evenodd" clip-rule="evenodd" d="M588.34 265.327C594.717 271.893 606.137 275.177 622.602 275.177V300.788H576.733H571.352V299.797C571.017 299.728 570.684 299.658 570.353 299.588C556.934 296.638 546.608 292.688 539.375 287.739C532.142 282.695 527.193 276.938 524.528 270.466C521.864 263.899 520.531 256.999 520.531 249.766V208.082C520.531 198.85 519.484 191.237 517.391 185.241C515.297 179.15 511.347 174.677 505.542 171.822C499.641 168.871 491.076 167.396 479.846 167.396V122C494.217 122 507.445 122.904 519.532 124.712C531.619 126.521 542.087 130.137 550.938 135.562C559.694 140.987 566.546 149.028 571.495 159.688C576.349 170.251 578.776 184.337 578.776 201.943V233.492C578.776 248.148 581.964 258.76 588.34 265.327Z" fill="#E6226C"/>
<path fill-rule="evenodd" clip-rule="evenodd" d="M586.441 329.997C593.261 323.539 604.903 320.431 621.365 320.673L623.133 294.633L580.402 294.005L571.889 293.88L571.789 295.356C571.448 295.42 571.111 295.484 570.775 295.549C557.158 298.296 546.566 302.084 538.998 306.915C531.425 311.842 526.086 317.513 522.984 323.931C519.875 330.443 518.075 337.308 517.585 344.524L514.763 386.113C514.138 395.324 512.575 402.904 510.076 408.856C507.57 414.902 503.318 419.306 497.32 422.07C491.22 424.926 482.556 426.272 471.327 426.107L468.253 471.399C482.622 471.61 495.91 470.903 508.118 469.277C520.326 467.65 531.038 464.196 540.256 458.914C549.378 453.63 556.774 445.708 562.444 435.146C568.012 424.677 571.393 410.66 572.585 393.094L574.721 361.617C575.714 346.995 579.62 336.455 586.441 329.997Z" fill="#FAC60C"/>
</svg>
