<svg width="155" height="39" viewBox="0 0 155 39" fill="none" xmlns="http://www.w3.org/2000/svg">
<path fill-rule="evenodd" clip-rule="evenodd" d="M3.83523 16.044C3.12145 16.7791 1.84304 17.1467 0 17.1467V19.3345H5.73686H7.75063C8.36843 19.105 8.89035 18.8444 9.31641 18.5529C10.1261 17.9883 10.68 17.3438 10.9783 16.6193C11.2766 15.8842 11.4258 15.1119 11.4258 14.3022V9.63601C11.4258 8.60263 11.543 7.75036 11.7773 7.07919C12.0117 6.39737 12.4538 5.89666 13.1037 5.57706C13.7642 5.2468 14.723 5.08168 15.9801 5.08168V0C14.3714 0 12.8906 0.101208 11.5376 0.303621C10.1847 0.506037 9.01278 0.910867 8.02202 1.51811C7.0419 2.12536 6.27486 3.02557 5.72088 4.21875C5.17756 5.40128 4.9059 6.97798 4.9059 8.94886V12.4805C4.9059 14.1211 4.54901 15.3089 3.83523 16.044Z" fill="#29ADF8"/>
<path fill-rule="evenodd" clip-rule="evenodd" d="M3.92926 22.3129C3.2198 21.5737 1.94357 21.1986 0.100561 21.1878L0.113392 19L5.85015 19.0336L7.86388 19.0455C8.48033 19.2786 9.00072 19.5422 9.42505 19.8362C10.2314 20.4056 10.7816 21.0534 11.0756 21.7795C11.3696 22.5164 11.5142 23.2896 11.5095 24.0992L11.4821 28.7654C11.476 29.7987 11.5882 30.6517 11.8187 31.3242C12.049 32.0074 12.4882 32.5107 13.1362 32.8341C13.7947 33.1682 14.7526 33.3389 16.0096 33.3463L15.9798 38.4279C14.3712 38.4185 12.891 38.3086 11.5392 38.0982C10.1875 37.8879 9.01797 37.4762 8.03078 36.8632C7.05425 36.2502 6.29249 35.3455 5.74552 34.1491C5.20915 32.9634 4.94673 31.3851 4.95829 29.4143L4.97901 25.8827C4.98863 24.2421 4.63871 23.0522 3.92926 22.3129Z" fill="#8A43F7"/>
<path fill-rule="evenodd" clip-rule="evenodd" d="M18.642 17.0526C18.1503 17.5589 17.2696 17.8121 16 17.8121V19.8267V19.9638H17.9594H18.7682H19.9521V19.7107C19.9779 19.7054 20.0036 19.7 20.0291 19.6946C21.0639 19.4671 21.8602 19.1625 22.418 18.7809C22.9757 18.3919 23.3574 17.9479 23.5629 17.4489C23.7683 16.9425 23.8711 16.4104 23.8711 15.8526V12.6381C23.8711 11.9263 23.9518 11.3391 24.1133 10.8768C24.2747 10.4071 24.5793 10.0621 25.027 9.84197C25.482 9.61446 26.1425 9.50071 27.0085 9.50071V6C25.9003 6 24.8802 6.06972 23.9482 6.20916C23.0161 6.3486 22.2088 6.62749 21.5263 7.04581C20.8511 7.46413 20.3227 8.08428 19.9411 8.90625C19.5668 9.72088 19.3796 10.8071 19.3796 12.1648V14.5977C19.3796 15.7279 19.1338 16.5462 18.642 17.0526Z" fill="#1F6AE7"/>
<path fill-rule="evenodd" clip-rule="evenodd" d="M18.6481 21.9287C18.1554 21.4233 17.2741 21.1719 16.0045 21.1746L16.0003 19.16L16 19.023L17.9594 19.0189L18.7682 19.0172L19.9521 19.0147L19.9526 19.2678C19.9785 19.2731 20.0042 19.2784 20.0297 19.2837C21.065 19.5091 21.8619 19.812 22.4204 20.1925C22.979 20.5803 23.3616 21.0235 23.5681 21.5221C23.7746 22.0281 23.8785 22.5599 23.8797 23.1177L23.8864 26.3322C23.8879 27.0441 23.9698 27.631 24.1322 28.093C24.2947 28.5624 24.6 28.9067 25.0481 29.1259C25.5036 29.3525 26.1643 29.4649 27.0303 29.463L27.0376 32.9637C25.9295 32.9661 24.9092 32.8985 23.9768 32.761C23.0445 32.6235 22.2366 32.3463 21.5532 31.9294C20.8772 31.5125 20.3475 30.8934 19.9641 30.0722C19.5881 29.2584 19.3987 28.1726 19.3959 26.8149L19.3908 24.382C19.3885 23.2518 19.1409 22.434 18.6481 21.9287Z" fill="#480DF3"/>
<path fill-rule="evenodd" clip-rule="evenodd" d="M151.145 16.044C151.859 16.7791 153.137 17.1467 154.98 17.1467V19.3345H149.243H147.229C146.612 19.105 146.09 18.8444 145.664 18.5529C144.854 17.9883 144.3 17.3438 144.002 16.6193C143.703 15.8842 143.554 15.1119 143.554 14.3022V9.63601C143.554 8.60263 143.437 7.75036 143.203 7.07919C142.968 6.39737 142.526 5.89666 141.876 5.57706C141.216 5.2468 140.257 5.08168 139 5.08168V0C140.609 0 142.089 0.101208 143.442 0.303621C144.795 0.506037 145.967 0.910867 146.958 1.51811C147.938 2.12536 148.705 3.02557 149.259 4.21875C149.803 5.40128 150.074 6.97798 150.074 8.94886V12.4805C150.074 14.1211 150.431 15.3089 151.145 16.044Z" fill="#C7185D"/>
<path fill-rule="evenodd" clip-rule="evenodd" d="M142.835 35.044C142.121 35.7791 140.843 36.1467 139 36.1467V38.3345H144.737H146.751C147.368 38.105 147.89 37.8444 148.316 37.5529C149.126 36.9883 149.68 36.3438 149.978 35.6193C150.277 34.8842 150.426 34.1119 150.426 33.3022V28.636C150.426 27.6026 150.543 26.7504 150.777 26.0792C151.012 25.3974 151.454 24.8967 152.104 24.5771C152.764 24.2468 153.723 24.0817 154.98 24.0817V19C153.371 19 151.891 19.1012 150.538 19.3036C149.185 19.506 148.013 19.9109 147.022 20.5181C146.042 21.1254 145.275 22.0256 144.721 23.2188C144.178 24.4013 143.906 25.978 143.906 27.9489V31.4805C143.906 33.1211 143.549 34.3089 142.835 35.044Z" fill="#FCA20D"/>
<path fill-rule="evenodd" clip-rule="evenodd" d="M136.39 17.0526C136.882 17.5589 137.762 17.8121 139.032 17.8121V19.8267V19.9638H137.073H136.264H135.08V19.7107C135.054 19.7054 135.029 19.7 135.003 19.6946C133.968 19.4671 133.172 19.1625 132.614 18.7809C132.056 18.3919 131.675 17.9479 131.469 17.4489C131.264 16.9425 131.161 16.4104 131.161 15.8526V12.6381C131.161 11.9263 131.08 11.3391 130.919 10.8768C130.757 10.4071 130.453 10.0621 130.005 9.84198C129.55 9.61447 128.89 9.50071 128.024 9.50071V6C129.132 6 130.152 6.06972 131.084 6.20916C132.016 6.3486 132.823 6.62749 133.506 7.04581C134.181 7.46413 134.709 8.08428 135.091 8.90625C135.465 9.72088 135.653 10.8071 135.653 12.1648V14.5977C135.653 15.7279 135.898 16.5462 136.39 17.0526Z" fill="#BB1459"/>
<path fill-rule="evenodd" clip-rule="evenodd" d="M136.385 21.9269C136.878 21.4218 137.759 21.1709 139.028 21.1741L139.032 19.1596L139.032 19.0225L137.073 19.0175L136.264 19.0154L135.08 19.0123L135.08 19.2654C135.054 19.2707 135.028 19.276 135.003 19.2813C133.967 19.5062 133.171 19.8087 132.612 20.1889C132.054 20.5764 131.671 21.0194 131.465 21.518C131.259 22.0238 131.155 22.5556 131.154 23.1134L131.149 26.3279C131.147 27.0398 131.066 27.6267 130.903 28.0886C130.741 28.5579 130.436 28.9021 129.988 29.1211C129.533 29.3474 128.872 29.4595 128.006 29.4573L128 32.958C129.108 32.9608 130.128 32.8937 131.061 32.7567C131.993 32.6196 132.801 32.3428 133.484 31.9262C134.16 31.5096 134.689 30.8909 135.072 30.0699C135.448 29.2562 135.637 28.1705 135.639 26.8128L135.643 24.3799C135.645 23.2497 135.893 22.432 136.385 21.9269Z" fill="#F87A14"/>
<rect x="61" y="33" width="5" height="5" fill="#5215F9"/>
<rect x="70" y="33" width="5" height="5" fill="#2CC0FD"/>
<rect x="79" y="33" width="5" height="5" fill="#FAC60C"/>
<rect x="88" y="33" width="5" height="5" fill="#E6226C"/>
<path d="M36.2642 26V11.4545H39.3395V17.8679H39.5312L44.7656 11.4545H48.4517L43.054 17.9673L48.5156 26H44.8366L40.8523 20.0199L39.3395 21.8665V26H36.2642ZM53.1286 11.4545V26H50.0533V11.4545H53.1286ZM55.6587 26V11.4545H61.3974C62.4959 11.4545 63.4334 11.651 64.2099 12.044C64.9911 12.4323 65.5853 12.9839 65.9925 13.6989C66.4045 14.4091 66.6104 15.2448 66.6104 16.206C66.6104 17.1719 66.4021 18.0028 65.9854 18.6989C65.5688 19.3902 64.9651 19.9205 64.1744 20.2898C63.3884 20.6591 62.4367 20.8438 61.3192 20.8438H57.4769V18.3722H60.8221C61.4092 18.3722 61.8969 18.2917 62.2852 18.1307C62.6734 17.9697 62.9622 17.7282 63.1516 17.4062C63.3458 17.0843 63.4428 16.6842 63.4428 16.206C63.4428 15.723 63.3458 15.3158 63.1516 14.9844C62.9622 14.6529 62.671 14.402 62.2781 14.2315C61.8898 14.0563 61.3997 13.9688 60.8079 13.9688H58.734V26H55.6587ZM63.5138 19.3807L67.1289 26H63.734L60.1971 19.3807H63.5138ZM71.859 11.4545V26H68.7837V11.4545H71.859ZM84.0341 16.1562C83.9347 15.8106 83.795 15.5052 83.6151 15.2401C83.4351 14.9702 83.215 14.7429 82.9545 14.5582C82.6989 14.3688 82.4053 14.2244 82.0739 14.125C81.7472 14.0256 81.3849 13.9759 80.9872 13.9759C80.2438 13.9759 79.5904 14.1605 79.027 14.5298C78.4683 14.8991 78.0327 15.4366 77.7202 16.142C77.4077 16.8428 77.2514 17.6998 77.2514 18.7131C77.2514 19.7263 77.4053 20.5881 77.7131 21.2983C78.0208 22.0085 78.4564 22.5507 79.0199 22.9247C79.5833 23.294 80.2486 23.4787 81.0156 23.4787C81.7116 23.4787 82.3059 23.3556 82.7983 23.1094C83.2955 22.8584 83.6742 22.5057 83.9347 22.0511C84.1998 21.5966 84.3324 21.0592 84.3324 20.4389L84.9574 20.5312H81.2074V18.2159H87.294V20.0483C87.294 21.3267 87.0241 22.4252 86.4844 23.3438C85.9446 24.2576 85.2012 24.9631 84.2543 25.4602C83.3073 25.9527 82.223 26.1989 81.0014 26.1989C79.6378 26.1989 78.4399 25.8982 77.4077 25.2969C76.3755 24.6908 75.5705 23.8314 74.9929 22.7188C74.42 21.6013 74.1335 20.2756 74.1335 18.7415C74.1335 17.5625 74.304 16.5114 74.6449 15.5881C74.9905 14.66 75.4735 13.8741 76.0938 13.2301C76.714 12.5862 77.4361 12.0961 78.2599 11.7599C79.0838 11.4238 79.9763 11.2557 80.9375 11.2557C81.7614 11.2557 82.5284 11.3764 83.2386 11.6179C83.9489 11.8546 84.5786 12.1908 85.1278 12.6264C85.6818 13.062 86.134 13.5805 86.4844 14.1818C86.8348 14.7784 87.0597 15.4366 87.1591 16.1562H84.0341ZM89.604 26V11.4545H92.6793V17.456H98.9222V11.4545H101.99V26H98.9222V19.9915H92.6793V26H89.604ZM107.033 26H103.738L108.759 11.4545H112.722L117.736 26H114.441L110.797 14.7784H110.684L107.033 26ZM106.827 20.2827H114.611V22.6832H106.827V20.2827Z" fill="#000E5E"/>
</svg>
